<svg
                version="1.1"
                id="Layer_1"
                xmlns="http://www.w3.org/2000/svg"
                xmlns:xlink="http://www.w3.org/1999/xlink"
                x="0px"
                y="0px"
                width="30px"
                height="14px"
                viewBox="0 0 30 14"
                style="enable-background:new 0 0 30 14;"
                xml:space="preserve"
              >
                <g>
                  <path
                    class="st0"
                    d="M17.4,19.4c-0.4,0-0.7,0-1-0.1l-0.3,0l-0.6-0.1c-2.4-0.3-4.7-1.3-6.5-2.9L8.7,16c-1.6-1.3-2.6-3.1-3.1-5.1
                        c-0.1-0.4-0.2-0.7-0.2-1.1C2.1,11,0,13.6,0,16.4c0,2.1,1.2,4.1,3.2,5.5c0.2,0.1,0.3,0.3,0.3,0.5v4.2l3.2-3
                        c0.1-0.1,0.4-0.2,0.6-0.2c0.7,0.1,1.5,0.2,2.2,0.2c3.7,0,7.1-1.7,8.6-4.3L17.4,19.4L17.4,19.4z"
                  ></path>
                </g>
                <g>
                  <path
                    class="st0"
                    d="M18.3,0C11.9,0,6.6,4.1,6.6,9.1s5.2,9.1,11.7,9.1c0.9,0,1.8-0.1,2.7-0.2h0.1c0.2,0,0.3,0.1,0.4,0.2l4.2,3.8
			                      v-5.5c0-0.2,0.1-0.4,0.3-0.5c2.5-1.7,4-4.2,4-6.8C30,4.1,24.8,0,18.3,0z"
                  ></path>
                </g>
              </svg>