    <svg xmlns="http://www.w3.org/2000/svg" viewBox="0 0 605.852 541.915">
      <defs></defs>
      <g id="Group_4684" data-name="Group 4684" transform="translate(-1.959 -0.538)">
        <path
          id="Path_507"
          data-name="Path 507"
          class="cls-1"
          d="M386.044,674.887c-17.138.129-38.079-6.588-51.2-18.762L145.973,480.908c-37.712-37.711-16.375-84.943-3.695-98.613a69.849,69.849,0,0,1,98.6-3.7L370.74,499.066,603.41,163.005a69.782,69.782,0,0,1,114.751,79.436s-278.189,401.8-278.5,402.251c-13.215,19.078-31.511,30.025-53.621,30.193ZM170.164,408.168c-12.224,12.214-10.966,33.125,1.674,44.854L360.7,628.24a31.751,31.751,0,0,0,47.687-5.2L686.878,220.788a31.739,31.739,0,0,0-52.195-36.127L389.53,538.77a19.015,19.015,0,0,1-28.579,3.11S215.195,406.664,215.017,406.485c-5.825-5.4-27.9-15.275-44.854,1.684Zm0,0"
          transform="translate(-122.729 -132.435)"
        ></path>
      </g>
    </svg>
